<svg height='100px' width='100px'  fill="#d0295b" xmlns="http://www.w3.org/2000/svg" 
viewBox="0 0 100 100" x="0px" y="0px"><title>Translate Glyph</title><g data-name="Layer 2">
<g data-name="Translate Glyph"><rect width="100" height="100" fill="none"></rect><path 
d="M11.85,46,2.5,29.92H7.87V2.5H56.21v7.59H15.15V29.92h5.37Zm55.73-6.12H58.85L75,2.5h6.47l16,37.42H88.63L85.3,31.7H70.8Zm6-15.18h9L78.06,12.93ZM25,63h4.54V75.33a7.29,7.29,0,0,1-3.45.78A7.37,7.37,0,0,1,22.32,75a8.2,8.2,0,0,0-1.72-1.15,10.11,10.11,0,0,0,3.09-7.61c0-6.29-4-10.51-10-10.51a10.33,10.33,0,0,0-9,5l-.28.47,4.88,5.45.49-.94a4.06,4.06,0,0,1,3.74-2.53c1.93,0,3.14,1.42,3.14,3.7,0,1.65-.52,4.42-4,4.42H10.24v7.44h3.48c2.93,0,4.41,1.32,4.41,3.93,0,2.14-1.08,4.42-4.1,4.42-3.48,0-5.38-3-5.88-4l-.5-.92L2.5,88l.31.47A13.25,13.25,0,0,0,14,94.59c6.56,0,11.17-4.81,11.33-11.75a7.09,7.09,0,0,0,4.25.12V97.5h7.37V63H44V97.5h7.37V63h5.66V56H25ZM79.47,66.8h5.37V89H60.52V97.5h31.6V66.8H97.5L88.14,48.73Z">
</path></g></g></svg>